<svg xmlns="http://www.w3.org/2000/svg" width="477.8" height="477.8" viewBox="0 0 477.8 477.8"><style type="text/css">.st0{fill:#0F2D53;} .st1{fill:#B59759;} .st2{fill:none;stroke:#B59759;stroke-width:3;}</style><path class="st0" d="M0 0h477.8v477.8h-477.8z"/><path class="st1" d="M34.7 341.5c.4.6.9 1.1 1.6 1.6.6.5 1.3.9 2.2 1.2.8.3 1.7.4 2.7.4 1 0 2-.2 2.8-.5.8-.4 1.6-.8 2.1-1.4.6-.6 1-1.4 1.4-2.2.3-.8.5-1.7.5-2.7 0-1.5-.4-2.6-1.1-3.5-.7-.9-1.7-1.6-2.8-2.2-1.1-.6-2.3-1.1-3.6-1.5-1.3-.5-2.5-1.1-3.6-1.8s-2.1-1.6-2.8-2.7c-.8-1.1-1.1-2.6-1.1-4.5 0-1.3.2-2.6.7-3.6.5-1.1 1.2-2 2.1-2.8.9-.8 2-1.4 3.3-1.9 1.3-.4 2.7-.7 4.3-.7 1.5 0 2.8.2 4 .5 1.1.4 2.1.9 3.1 1.7-.3.5-.5 1.1-.7 1.7-.2.6-.4 1.4-.6 2.3h-.6c-.1-.4-.3-.9-.6-1.4-.3-.5-.6-1-1.1-1.5-.5-.4-1-.8-1.6-1.1-.6-.3-1.4-.4-2.3-.4-.9 0-1.7.1-2.5.4-.7.3-1.4.7-2 1.2-.6.5-1 1.1-1.3 1.9-.3.7-.5 1.5-.5 2.4 0 1.5.4 2.7 1.1 3.5.7.9 1.7 1.6 2.8 2.2 1.1.6 2.3 1.1 3.6 1.6 1.3.5 2.5 1 3.6 1.7s2 1.5 2.8 2.6c.7 1 1.1 2.4 1.1 4.2 0 1.5-.3 2.8-.8 4.1-.5 1.3-1.3 2.5-2.3 3.4-1 .9-2.2 1.7-3.7 2.2-1.4.5-3.1.8-4.9.8-2 0-3.6-.3-4.8-.8-1.2-.5-2.2-1.1-3.1-1.8.3-.7.5-1.4.6-2 .1-.6.2-1.4.3-2.3h.6c.3.6.6 1.1 1.1 1.7M83.4 319.4c-.1-2-.2-4-.3-6.2l1.2.2c.4.1.8.1 1.1.1.4 0 .8 0 1.1-.1l1.2-.2c-.1 2.1-.2 4.2-.3 6.2-.1 2-.1 4.1-.1 6.2v8.2c0 2.1 0 4.2.1 6.2l.3 6c-.7-.1-1.5-.1-2.3-.1-.8 0-1.6 0-2.3.1l.3-6c.1-2 .1-4.1.1-6.2v-4.3c-1.7 0-3.4 0-5-.1h-10c-1.6 0-3.3.1-5 .1v4.3c0 2.1 0 4.2.1 6.2l.3 6c-.7-.1-1.5-.1-2.3-.1-.8 0-1.6 0-2.3.1l.3-6c.1-2 .1-4.1.1-6.2v-8.2c0-2.1 0-4.2-.1-6.2s-.2-4-.3-6.2l1.2.2c.4.1.8.1 1.1.1.4 0 .8 0 1.2-.1l1.2-.2c-.1 2.1-.2 4.2-.3 6.2-.1 2-.1 4.1-.1 6.2v1.7c1.7 0 3.4 0 5 .1h10c1.6-.1 3.3-.1 5-.1v-1.7c-.1-2.1-.1-4.2-.2-6.2M103.2 331.2h2.6c.9.1 1.7.1 2.6.1h2.7l2.7-.1-5.3-12.1-5.3 12.1zm21.1 14.8c-.4-.1-.9-.1-1.3-.1h-2.6c-.4 0-.8 0-1.3.1-.2-.8-.5-1.6-.9-2.7-.4-1-.8-2.1-1.3-3.2l-1.4-3.4c-.5-1.1-.9-2.3-1.3-3.3-1-.1-2.1-.1-3.1-.1h-6c-.9 0-1.9 0-2.9.1-1 2.5-1.9 4.8-2.8 7.1-.8 2.2-1.5 4.1-1.9 5.6-.5-.1-1.1-.1-1.8-.1-.6 0-1.2 0-1.8.1 2.6-5.6 5.1-11.1 7.5-16.6 2.4-5.5 4.9-11.1 7.4-16.8h.9c.8 1.8 1.6 3.8 2.5 6l2.7 6.5c.9 2.2 1.8 4.4 2.7 6.5.9 2.1 1.8 4.2 2.6 6 .8 1.9 1.5 3.5 2.2 5 1 1.4 1.5 2.5 1.9 3.3M136.4 328.5c.5 0 1.1.1 1.7.1 1 0 2-.1 3.1-.4 1.1-.2 2-.6 2.9-1.1.9-.5 1.6-1.3 2.2-2.2.6-.9.9-2.1.9-3.6 0-1.2-.2-2.2-.7-3.1-.5-.8-1-1.5-1.8-1.9-.7-.5-1.5-.8-2.4-1-.8-.2-1.7-.3-2.5-.3-1.1 0-2 0-2.7.1-.7.1-1.4.1-1.9.2l-.2 5.2c-.1 1.7-.1 3.4-.1 5.1v2.7c.5.1 1 .2 1.5.2m-5.4-9.1c-.1-2-.1-4-.2-6.2l2.7.2c.9.1 1.8.1 2.7.1.9 0 1.8 0 2.7-.1.9-.1 1.8-.1 2.7-.1 1.3 0 2.6.1 3.8.4 1.2.3 2.3.7 3.2 1.3.9.6 1.6 1.3 2.1 2.3.5 1 .8 2.1.8 3.6s-.4 2.8-1 3.9c-.7 1.1-1.5 2-2.5 2.7-1 .7-2 1.3-3.1 1.7-1.1.4-2.2.7-3.1.8.4.4.9 1.1 1.6 2 .7.9 1.4 1.8 2.2 2.8.8 1 1.7 2.1 2.6 3.2.9 1.1 1.8 2.2 2.6 3.2s1.6 2 2.3 2.8c.7.8 1.3 1.5 1.8 2-.5-.1-1-.1-1.4-.1h-2.8c-.5 0-.9 0-1.4.1-.5-.7-1.2-1.7-2.1-3-1-1.4-2-2.8-3.2-4.3l-3.6-4.5c-1.2-1.5-2.3-2.8-3.3-3.8h-2.1v3.5c0 2.1 0 4.2.1 6.2s.2 4 .2 6c-.7-.1-1.5-.1-2.3-.1-.8 0-1.6 0-2.3.1.1-2 .2-4 .2-6 .1-2 .1-4.1.1-6.2v-8.2c.1-2.2 0-4.3 0-6.3M171.1 325.8c2.2 4.2 4.6 8.6 7 13.1.3-.6.8-1.5 1.4-2.6.6-1.1 1.3-2.4 2.1-3.9.8-1.4 1.7-3 2.5-4.7.9-1.7 1.8-3.4 2.8-5.1.9-1.8 1.9-3.5 2.8-5.1.9-1.7 1.8-3.3 2.6-4.7h.6c.3 3 .7 6 1 8.8l.9 8.4c.3 2.8.6 5.4.9 8.1.3 2.7.7 5.4 1.1 8-.4-.1-.8-.1-1.1-.1h-2.2c-.4 0-.7 0-1.1.1-.3-4.2-.7-8.3-1-12.3-.3-4-.8-8-1.3-12.1h-.1c-2.2 4-4.4 8-6.5 11.9-2.1 4-4.1 8.1-6 12.4h-.5c-1.9-4-3.9-8-6-12s-4.2-8.1-6.2-12.3h-.1c-.2 1.9-.5 4.1-.7 6.4-.3 2.3-.5 4.6-.7 6.8-.2 2.2-.4 4.3-.6 6.3-.2 2-.3 3.6-.3 4.9-.5-.1-1.1-.1-1.7-.1-.6 0-1.1 0-1.6.1.4-2.6.8-5.3 1.3-8.2.4-2.9.8-5.7 1.3-8.6.4-2.9.8-5.7 1.1-8.5.4-2.8.7-5.5.9-8h.8c2.2 4.4 4.4 8.7 6.6 13M219.4 319.4l-.3-6.1 4.3.2c1.4.1 2.8.1 4.2.1 1.4 0 2.9 0 4.2-.1l4.2-.2c-.1.5-.1 1-.1 1.4 0 .5 0 1 .1 1.4-1 0-1.9-.1-2.8-.2-.8-.1-1.7-.1-2.7-.2-.9-.1-2-.1-3.1-.1-1.1-.1-2.5-.1-4-.1 0 1-.1 2-.1 2.9 0 .9-.1 1.9-.1 3.1v6.300000000000001h3.7c1.1 0 2.1-.1 3-.1.9 0 1.8-.1 2.6-.1.8-.1 1.5-.1 2.2-.2-.1.5-.1 1-.1 1.5s0 1 .1 1.4c-.8-.1-1.8-.2-2.9-.2l-3.3-.1c-1.1 0-2.1 0-3.1-.1h-2.3v11.4c0 1.2 0 2.1.1 2.7h3.3c1.2 0 2.4 0 3.5-.1 1.2-.1 2.3-.1 3.3-.2s1.9-.2 2.7-.3c-.1.2-.1.5-.1.7v.7c0 .5.1.9.2 1.3-1.4-.1-2.9-.1-4.3-.1h-8.6c-1.4 0-2.9 0-4.3.1.1-2.1.2-4.1.3-6.1.1-2 .1-4.1.1-6.2v-8.2c.2-2.1.2-4.2.1-6.2M244.5 319.4c-.1-2-.2-4-.3-6.2l1.2.2c.4.1.8.1 1.1.1.4 0 .8 0 1.1-.1l1.2-.2c-.1 2.1-.2 4.2-.2 6.2-.1 2-.2 4.1-.2 6.2 0 4 0 7.5.1 10.4 0 2.9 0 5.6.1 7.9 2.3 0 4.4 0 6.5-.1 2.1-.1 4.3-.2 6.7-.5-.2.5-.2 1-.2 1.4 0 .3.1.8.2 1.3-1.5-.1-2.9-.1-4.4-.1h-8.8c-1.5 0-2.9 0-4.4.1l.3-6c.1-2 .1-4.1.1-6.2v-8.2c0-2.1 0-4.2-.1-6.2M284.2 341.5c.4.6.9 1.1 1.5 1.6s1.4.9 2.2 1.2c.8.3 1.8.4 2.7.4 1.1 0 2-.2 2.9-.5.8-.4 1.5-.8 2.1-1.4.6-.6 1-1.4 1.4-2.2.3-.8.5-1.7.5-2.7 0-1.5-.4-2.6-1.1-3.5-.8-.9-1.7-1.6-2.8-2.2-1.1-.6-2.3-1.1-3.6-1.5-1.3-.5-2.5-1.1-3.6-1.8s-2-1.6-2.8-2.7c-.8-1.1-1.1-2.6-1.1-4.5 0-1.3.2-2.6.7-3.6.5-1.1 1.2-2 2.1-2.8.9-.8 2-1.4 3.3-1.9 1.3-.4 2.7-.7 4.3-.7 1.5 0 2.8.2 4 .5 1.1.4 2.1.9 3.1 1.7-.3.5-.5 1.1-.7 1.7-.2.6-.4 1.4-.6 2.3h-.7c-.2-.4-.4-.9-.6-1.4-.3-.5-.6-1-1.1-1.5-.5-.4-1-.8-1.6-1.1-.6-.3-1.4-.4-2.3-.4-.9 0-1.7.1-2.4.4-.8.3-1.4.7-2 1.2-.5.5-1 1.1-1.2 1.9-.3.7-.5 1.5-.5 2.4 0 1.5.4 2.7 1.1 3.5.7.9 1.7 1.6 2.8 2.2 1.1.6 2.3 1.1 3.6 1.6 1.3.5 2.5 1 3.6 1.7s2.1 1.5 2.8 2.6c.8 1 1.1 2.4 1.1 4.2 0 1.5-.3 2.8-.8 4.1-.5 1.3-1.3 2.5-2.3 3.4-1 .9-2.2 1.7-3.7 2.2-1.4.5-3.1.8-4.9.8-2 0-3.6-.3-4.8-.8-1.2-.5-2.2-1.1-3.1-1.8.3-.7.5-1.4.6-2 .1-.6.2-1.4.3-2.3h.6c.2.6.6 1.1 1 1.7M333 319.4c-.1-2-.2-4-.3-6.2l1.2.2c.4.1.7.1 1.1.1.4 0 .8 0 1.1-.1l1.2-.2c-.1 2.1-.2 4.2-.2 6.2-.1 2-.1 4.1-.1 6.2v8.2c0 2.1.1 4.2.1 6.2.1 2 .2 4 .2 6-.7-.1-1.5-.1-2.3-.1-.8 0-1.6 0-2.3.1l.3-6c.1-2 .1-4.1.1-6.2v-4.3c-1.7 0-3.4 0-5-.1h-9.9c-1.6 0-3.3.1-5 .1v4.3c0 2.1 0 4.2.1 6.2l.3 6c-.7-.1-1.5-.1-2.3-.1-.8 0-1.6 0-2.3.1l.3-6c.1-2 .1-4.1.1-6.2v-8.2c0-2.1 0-4.2-.1-6.2s-.2-4-.3-6.2l1.2.2c.4.1.7.1 1.1.1.4 0 .8 0 1.1-.1l1.2-.2c-.1 2.1-.2 4.2-.3 6.2-.1 2-.1 4.1-.1 6.2v1.7c1.7 0 3.4 0 5 .1h9.9c1.6-.1 3.2-.1 5-.1v-1.7c0-2.1-.1-4.2-.1-6.2M347.5 319.4l-.3-6.1c1.4.1 2.8.1 4.3.2 1.4.1 2.8.1 4.3.1 1.4 0 2.9 0 4.2-.1l4.2-.2c-.1.5-.2 1-.2 1.4 0 .5 0 1 .2 1.4-1 0-2-.1-2.8-.2-.8-.1-1.7-.1-2.7-.2-.9-.1-1.9-.1-3-.1-1.1-.1-2.5-.1-4-.1 0 1-.1 2-.1 2.9 0 .9-.1 1.9-.1 3.1v6.300000000000001h3.8c1.1 0 2.1-.1 3-.1.9 0 1.7-.1 2.5-.1.8-.1 1.5-.1 2.2-.2-.1.5-.2 1-.2 1.5s.1 1 .2 1.4c-.8-.1-1.8-.2-2.9-.2l-3.3-.1c-1.1 0-2.1 0-3.1-.1h-2.3v14.100000000000001h3.3c1.2 0 2.4 0 3.5-.1 1.2-.1 2.3-.1 3.3-.2s1.9-.2 2.7-.3c-.1.2-.1.5-.1.7v.7c0 .5.1.9.1 1.3-1.4-.1-2.8-.1-4.2-.1h-8.6c-1.4 0-2.9 0-4.3.1.1-2.1.2-4.1.3-6.1.1-2 .1-4.1.1-6.2v-8.2c.1-2.1.1-4.2 0-6.2M372.6 319.4c-.1-2-.2-4-.3-6.2l1.2.2c.4.1.8.1 1.1.1.4 0 .8 0 1.2-.1l1.2-.2c-.1 2.1-.2 4.2-.3 6.2-.1 2-.1 4.1-.1 6.2v8.2c0 2.1.1 4.2.1 6.2l.3 6c-.7-.1-1.5-.1-2.3-.1-.8 0-1.6 0-2.3.1l.3-6c.1-2 .1-4.1.1-6.2v-8.2c-.1-2.1-.2-4.2-.2-6.2M387.1 340c.1-2 .1-4.1.1-6.2v-8.2c0-2.1 0-4.2-.1-6.2s-.2-4-.2-6.2l1.2.2c.4.1.8.1 1.2.1.4 0 .7 0 1.1-.1l1.2-.2c-.1 2.1-.2 4.2-.3 6.2 0 2-.1 4.1-.1 6.2v2.6c0 .3.1.4.3.4.1 0 .4-.1.7-.4 1.1-1 2.3-2 3.5-3.2 1.2-1.2 2.4-2.5 3.7-3.8 1.3-1.3 2.5-2.6 3.7-4 1.2-1.3 2.4-2.6 3.5-3.9l1 .2c.3.1.6.1.9.1.4 0 .8 0 1.1-.1l1.2-.2c-1.1 1-2.4 2.1-3.8 3.4-1.4 1.3-2.8 2.6-4.2 4-1.4 1.4-2.8 2.7-4 4-1.3 1.3-2.4 2.4-3.2 3.4 2.6 2.9 5.2 5.8 7.8 8.8 2.6 3 5.3 6 8 9-.5-.1-1-.1-1.4-.1h-3c-.4 0-.9 0-1.3.1-1.2-1.3-2.4-2.8-3.8-4.5-1.4-1.7-2.7-3.3-4.1-4.9-1.3-1.6-2.5-3-3.6-4.3l-2.3-2.6c-.2-.2-.4-.4-.6-.4-.1 0-.2.1-.2.3v4.1c0 2.1.1 4.2.1 6.2l.3 6c-.7-.1-1.5-.1-2.3-.1-.8 0-1.6 0-2.3.1 0-1.8.1-3.8.2-5.8M441.2 319.4c-.1-2-.2-4-.2-6.2l1.2.2c.4.1.8.1 1.1.1.4 0 .8 0 1.1-.1l1.2-.2c-.1 2.1-.2 4.2-.3 6.2-.1 2-.1 4.1-.1 6.2v8.2c0 2.1 0 4.2.1 6.2l.3 6c-.7-.1-1.5-.1-2.3-.1-.8 0-1.6 0-2.3.1.1-2 .2-4 .2-6 .1-2 .1-4.1.1-6.2v-4.3c-1.7 0-3.4 0-5-.1h-10c-1.6 0-3.3.1-5 .1v4.3c0 2.1.1 4.2.1 6.2l.3 6c-.8-.1-1.5-.1-2.3-.1-.9 0-1.6 0-2.3.1.1-2 .2-4 .2-6 .1-2 .1-4.1.1-6.2v-8.2c0-2.1-.1-4.2-.1-6.2-.1-2-.2-4-.2-6.2l1.2.2c.4.1.7.1 1.1.1.4 0 .7 0 1.1-.1l1.2-.2c-.1 2.1-.2 4.2-.3 6.2-.1 2-.1 4.1-.1 6.2v1.7c1.7 0 3.4 0 5 .1h10c1.6-.1 3.2-.1 5-.1v-1.7c0-2.1 0-4.2-.1-6.2"/><path class="st1" d="M89.1 152.2h-1.2c-.7-4.6-3-8.6-7-12.1-3.9-3.5-9.1-5.2-15.6-5.2-4.2 0-8 .9-11.2 2.6-3.3 1.7-5.8 4.1-7.6 7-1.8 3-2.7 6.4-2.7 10.2 0 3 .5 5.6 1.6 7.9 1.1 2.3 2.6 4.3 4.7 6.1 2.1 1.7 4.5 3.4 7.4 4.9 2.8 1.5 6.6 3.4 11.5 5.7 8 3.8 14.3 7.6 18.8 11.4 4.5 3.8 6.7 9 6.7 15.6 0 4-1.2 7.9-3.6 11.7-2.4 3.8-6 6.8-10.9 9.2-4.9 2.4-10.9 3.6-18.1 3.6-4.5 0-8.5-.4-12-1.2-3.5-.9-7-2-10.6-3.5-1.5-.4-2.5-.6-3.1-.6-1 0-1.7.3-2.1 1-.3.7-.8 2.1-1.3 4.2h-1.3v-23.8h1.3c1.8 6.9 5.3 12.2 10.4 15.7 5.2 3.6 11.4 5.4 18.8 5.4 5.6 0 12.1-.9 15.4-2.7 3.3-1.8 5.7-4 6.9-6.6 1.3-2.6 2-5.1 2-7.7 0-5.3-1.9-9.6-5.6-13-3.7-3.4-9.4-6.8-17.1-10.3-5.3-2.5-9.2-4.4-11.7-5.8-2.5-1.4-5.1-3.1-7.7-5.3-2.6-2.2-4.7-4.8-6.2-7.7-1.6-3-2.3-6.4-2.3-10.2 0-4.5 1.4-8.7 4.1-12.8 2.7-4.1 6.6-7.3 11.6-9.8 5-2.5 8.6-3.7 15-3.7 4.8 0 9.7.7 14.8 2.1.8.3 1.9.5 3.2.5 1.6 0 2.8-.9 3.3-2.8h1.2v20zM129 187.3h34.8l-17.8-45.5h-.3l-16.7 45.5zm21.7-54.5l33 81.9c1.7 4.3 3.4 7.3 4.9 9.2 1.5 1.9 3 3.1 4.4 3.6 1.4.5 3.2.8 5.4 1v1.1h-32.8v-1.1c3.7 0 6.5-.3 8.5-.9 2-.6 3-2.3 3-4.9 0-1.5-.5-3.4-1.4-5.9-.2-.3-.3-.6-.3-.8l-9.8-25.5h-37.9l-8.7 23.6c-1.2 3.2-1.8 5.8-1.8 7.8 0 2.7.8 4.5 2.3 5.4 1.5.9 3.7 1.3 6.6 1.3v1.1h-25.8v-1.1c3.7-.3 6.6-1.5 8.8-3.7 2.2-2.1 4.1-5.4 5.8-9.8l30.9-82.3h4.9zM273.6 132.1v1.1c-2.8.3-5.1 1.1-7 2.5-1.8 1.4-3.4 3.1-4.7 5.3-1.3 2.2-2.8 5-4.4 8.6-.3.2-.5.7-.7 1.6l-30.7 80-36.3-86.5c0-.2-.1-.4-.3-.8-1.5-3.7-3.3-6.4-5.7-8.1-2.4-1.7-5.3-2.5-8.8-2.5v-1.1h32.8v1.1c-3 .3-5.5.8-7.3 1.6-1.8.8-2.7 2.7-2.7 5.6 0 .8.4 2.4 1.2 4.8l.3.7c.1.3.1.4.2.6l28.7 67.8h.3l24.7-63.2c1.7-4.3 2.6-7.6 2.6-9.8 0-3.5-.8-5.6-2.5-6.6-1.7-.9-4.1-1.5-7.4-1.6v-1.1h27.7zM344 181.6c0-12.6-2-22.5-5.8-29.6-3.9-7.1-8.4-11.9-13.4-14.3-5.1-2.4-9.9-3.6-14.3-3.6-3.5 0-7.1.7-10.8 2-3.7 1.3-7.4 3.7-10.9 7.2s-6.4 8.4-8.7 14.7c-2.3 6.3-3.4 14.1-3.4 23.4 0 8.1.9 15.3 2.8 21.3 1.9 6.1 4.5 11 7.8 14.9 3.3 3.8 6.9 6.6 10.9 8.3 4 1.7 8.1 2.5 12.4 2.5 3.9 0 7.7-.8 11.7-2.3 3.9-1.6 7.5-4.1 10.8-7.7 3.3-3.5 5.9-8.3 8-14.4 1.8-6.2 2.9-13.6 2.9-22.4m9.7-.2c0 8.9-1.9 17.1-5.7 24.8-3.8 7.6-9 13.7-15.6 18.2s-13.9 6.8-21.9 6.8c-8.1 0-15.4-2.3-22.1-6.8-6.7-4.5-12-10.6-15.9-18.3-3.8-7.7-5.8-16-5.8-25.1 0-6.9 1.1-13.5 3.4-19.6 2.3-6.1 5.5-11.4 9.6-16 4.1-4.5 8.8-8 14.1-10.5 5.3-2.5 10.8-3.7 16.5-3.7 5.6 0 11 1.2 16.2 3.6 5.2 2.4 9.8 5.8 13.9 10.3 4.1 4.5 7.4 9.8 9.7 16 2.5 6.1 3.6 12.9 3.6 20.3"/><path class="st1" d="M446.2 131.6v1.1c-3.3 0-6.2.7-8.8 2.1-2.6 1.3-4.6 2.7-6 4.2-1.4 1.4-3 3.2-4.6 5.2l-26.8 34.7v39.5c0 3.5 1.2 6.2 3.5 7.9 2.4 1.8 5.2 2.7 8.6 2.8v1.1h-33.8v-1.1c3.5-.1 7.3-1 9.4-2.7 2.1-1.7 3.1-4.4 3.1-8v-37.8l-27.9-37.6c-3-4.1-5.7-6.8-8-8.1-2.3-1.3-6.6-2.1-10.6-2.1v-1.1h37.9v1.1c-4 .1-6.5.9-7.6 2.3-1.1 1.4-1.7 2.7-1.7 4 0 1.4 1 3.4 2.9 6l22.8 30.5 21.3-27.5c3.1-4.1 4.6-7.3 4.6-9.4 0-1.5-.4-2.7-1.2-3.5-.8-.9-1.6-1.4-2.5-1.7-.8-.3-1.7-.5-2.7-.7v-1.1h28.1z"/><path class="st2" d="M31.7 277.6h66.7M379.3 277.6h66.8"/><path class="st1" d="M152.5 260.3c-.8-.7-1.8-1.2-2.8-1.7-1-.5-2.1-.9-3.4-1.2-1.2-.3-2.6-.5-4-.5-2.3 0-4.4.4-6.4 1.1-2 .7-3.7 1.8-5.1 3.2-1.5 1.5-2.6 3.3-3.4 5.5-.8 2.2-1.2 4.9-1.2 7.9 0 2.7.4 5.1 1.1 7.3.7 2.2 1.8 4 3.2 5.5 1.4 1.5 3.2 2.6 5.2 3.5 2 .8 4.4 1.2 6.9 1.2.8 0 1.6 0 2.4-.1.9-.1 1.7-.2 2.5-.3.8-.1 1.5-.3 2.2-.5.7-.2 1.3-.5 1.7-.8l.1-3.3v-3.4c0-1.3 0-2.6-.1-3.9 0-1.3-.1-2.5-.2-3.7.9.2 1.8.3 2.6.3h1.2c.4 0 .8-.1 1.2-.2-.1.8-.1 2.2-.2 4v11.600000000000001c-.8.3-1.7.6-2.9.9-1.2.3-2.4.6-3.7.8l-3.9.6c-1.3.2-2.5.2-3.6.2-3.3 0-6.2-.4-8.9-1.2-2.6-.8-4.9-2-6.7-3.7-1.8-1.7-3.3-3.7-4.3-6.2s-1.5-5.3-1.5-8.6c0-3.1.5-5.9 1.5-8.4s2.5-4.5 4.4-6.2c1.9-1.7 4.2-3 6.8-3.9 2.7-.9 5.6-1.3 8.9-1.3 1.9 0 3.5.1 5 .3 1.5.2 2.7.5 3.9.8 1.1.3 2.1.7 3 1.1.8.4 1.6.7 2.3 1-.3.5-.6 1.2-.8 2-.2.8-.4 1.6-.5 2.3h-.7c-.3-.6-.9-1.3-1.8-2M183.2 273.3h2c1.1 0 2.3-.1 3.6-.4 1.2-.3 2.4-.7 3.4-1.3 1-.7 1.9-1.5 2.6-2.6.7-1.1 1-2.5 1-4.1 0-1.4-.3-2.6-.8-3.6-.5-.9-1.2-1.7-2.1-2.2-.8-.6-1.8-.9-2.8-1.1-1-.2-2-.3-2.9-.3-1.3 0-2.4 0-3.2.1-.8.1-1.6.1-2.2.2-.1 2-.2 4-.2 6-.1 2-.1 4-.1 6v3.1c.5.1 1.1.1 1.7.2m-6.3-10.6c-.1-2.4-.2-4.7-.3-7.2l3.2.2c1 .1 2.1.1 3.1.1 1.1 0 2.1 0 3.2-.1 1-.1 2.1-.1 3.2-.1 1.5 0 3 .2 4.4.4 1.4.3 2.6.8 3.7 1.5s1.9 1.6 2.5 2.7c.6 1.1.9 2.5.9 4.2 0 1.8-.4 3.3-1.2 4.6-.8 1.3-1.8 2.3-2.9 3.1-1.2.8-2.4 1.5-3.7 1.9-1.3.5-2.5.8-3.6.9.4.5 1 1.3 1.8 2.3.8 1 1.6 2.1 2.6 3.3 1 1.2 1.9 2.5 3 3.8 1 1.3 2 2.6 3 3.8 1 1.2 1.9 2.3 2.7 3.3.8 1 1.5 1.8 2.1 2.3-.6-.1-1.1-.1-1.7-.1h-3.3c-.6 0-1.1 0-1.6.1-.6-.8-1.4-1.9-2.5-3.5-1.1-1.5-2.4-3.2-3.7-5l-4.2-5.3c-1.4-1.8-2.7-3.2-3.9-4.5h-2.1v4c0 2.4 0 4.8.1 7.2.1 2.4.2 4.7.3 7-.8-.1-1.7-.1-2.7-.1-1 0-1.9 0-2.7.1.1-2.3.2-4.6.3-7 .1-2.4.1-4.8.1-7.2v-9.5c0-2.4 0-4.8-.1-7.2M253.6 266.7c-.8-2.2-1.9-4.1-3.2-5.5-1.4-1.5-3-2.5-4.9-3.2-1.9-.7-3.9-1.1-6.1-1.1-2.1 0-4.1.4-6 1.1-1.9.7-3.5 1.8-4.9 3.2-1.4 1.5-2.5 3.3-3.2 5.5-.8 2.2-1.2 4.9-1.2 7.9 0 3.1.4 5.7 1.2 7.9.8 2.2 1.9 4.1 3.2 5.5 1.4 1.5 3 2.5 4.9 3.2 1.9.7 3.9 1.1 6 1.1 2.2 0 4.2-.4 6.1-1.1 1.9-.7 3.5-1.8 4.9-3.2 1.4-1.5 2.5-3.3 3.2-5.5.8-2.2 1.2-4.9 1.2-7.9s-.4-5.6-1.2-7.9m-33.3-.4c1-2.5 2.4-4.5 4.3-6.2 1.8-1.7 4-3 6.6-3.9 2.5-.9 5.3-1.3 8.4-1.3 3.1 0 5.9.4 8.4 1.3 2.6.9 4.7 2.2 6.6 3.9 1.8 1.7 3.2 3.8 4.3 6.2 1 2.4 1.5 5.2 1.5 8.4 0 3.1-.5 5.9-1.5 8.4s-2.4 4.5-4.3 6.2c-1.8 1.7-4 3-6.6 3.8-2.5.8-5.3 1.2-8.4 1.2-3 0-5.8-.4-8.4-1.2-2.5-.8-4.7-2.1-6.6-3.8-1.8-1.7-3.2-3.8-4.3-6.2-1-2.4-1.5-5.2-1.5-8.4s.5-6 1.5-8.4M307.7 261.4c0-2.8-.1-4.8-.3-5.9l1.2.2c.4.1.7.1 1.1.1.5 0 1-.1 1.7-.3-.1 1.3-.2 2.8-.3 4.6-.1 1.8-.2 3.7-.3 5.8-.1 2-.1 4.1-.2 6.3l-.2 6.3c0 2.5-.4 4.7-1.1 6.6-.7 2-1.7 3.6-3.1 5-1.3 1.4-3 2.4-4.9 3.1-1.9.7-4.2 1.1-6.7 1.1-5.5 0-9.5-1.3-12.1-3.8-2.5-2.5-3.8-6.5-3.8-11.9 0-1.7 0-3.3.1-4.6.1-1.3.1-2.7.1-4.1 0-3.1 0-5.9-.1-8.2-.1-2.4-.1-4.4-.2-6.1.4.1.9.1 1.4.2.5.1 1 .1 1.4.1.4 0 .8 0 1.2-.1.4 0 .8-.1 1.2-.2-.1.8-.2 1.9-.2 3.2-.1 1.3-.1 2.8-.2 4.5-.1 1.7-.1 3.4-.2 5.4v9.9c0 1.3.2 2.7.4 3.9.2 1.3.6 2.5 1.1 3.7.5 1.2 1.2 2.2 2.1 3 .9.9 2.1 1.6 3.5 2 1.4.5 3.1.7 5.2.7 2 0 3.7-.3 5.1-.9 1.4-.6 2.5-1.4 3.4-2.3.9-1 1.6-2.1 2.1-3.3.5-1.3.9-2.6 1.1-3.9.2-1.4.3-2.7.4-4.1 0-1.4.1-2.6.1-3.8.1-5.3.1-9.3 0-12.2M341.5 274.5c1.1 0 2.3-.1 3.5-.4 1.2-.3 2.3-.7 3.3-1.4s1.8-1.6 2.5-2.8c.6-1.2 1-2.7 1-4.6 0-1.6-.2-2.9-.7-3.9-.4-1-1.1-1.8-1.8-2.3-.8-.6-1.8-.9-2.9-1.1-1.1-.2-2.4-.3-3.9-.3h-5v16.3c1.4.3 2.7.5 4 .5m-8.6-11.8c-.1-2.4-.2-4.7-.3-7.2l2.7.2c.9.1 1.8.1 2.7.1.4 0 1 0 1.6-.1l1.9-.1c.6 0 1.3 0 1.8-.1.6 0 1.1-.1 1.5-.1.6 0 1.2 0 2 .1.8 0 1.7.1 2.6.3.9.2 1.8.5 2.7.8.9.4 1.7.9 2.4 1.6.7.7 1.3 1.6 1.7 2.6.4 1.1.7 2.4.7 3.9 0 2.4-.5 4.4-1.6 5.9s-2.3 2.7-3.9 3.5c-1.5.8-3.1 1.4-4.9 1.7-1.7.3-3.2.4-4.6.4h-2.3c-.7 0-1.4-.1-2.2-.1v3c0 2.4 0 4.8.1 7.2.1 2.4.2 4.7.3 7-.8-.1-1.8-.1-2.7-.1-1 0-1.9 0-2.7.1.1-2.3.2-4.6.3-7 .1-2.4.1-4.8.1-7.2v-9.5c.3-2.1.2-4.5.1-6.9"/></svg>